<svg xmlns="http://www.w3.org/2000/svg" width="106" height="30" viewBox="0 0 106 30" fill="none">
    <g clip-path="url(#clip0_1006_1104)">
        <path d="M27.6169 19.7183L29.3151 8.84546C29.4917 7.74211 28.743 6.70395 27.6426 6.52637L4.72799 2.83837C3.62767 2.6613 2.59241 3.41205 2.41583 4.5154L1.60156 9.60024V19.6551L27.6169 19.7183Z" fill="#146AA8"/>
        <path d="M27.6459 6.53156L21.1377 5.48438C16.7665 12.1911 9.70027 16.8363 4.28125 19.6668L27.6202 19.7235L29.3184 8.85064C29.495 7.74724 28.7463 6.70913 27.6459 6.53156Z" fill="#126099"/>
        <path d="M2.39307 9.09375H25.6008C26.7153 9.09375 27.6189 9.99984 27.6189 11.1174V24.2709C27.6189 25.3884 26.7153 26.2945 25.6008 26.2945H2.39307C1.2786 26.2944 0.375 25.3884 0.375 24.2709V11.1174C0.375 9.99984 1.2786 9.09375 2.39307 9.09375Z" fill="#4398D1"/>
        <path d="M25.5996 9.09375H25.196C20.4333 17.5722 11.5342 23.388 6.10156 26.2944H25.5996C26.7141 26.2944 27.6177 25.3883 27.6177 24.2708V11.1174C27.6177 9.99984 26.7141 9.09375 25.5996 9.09375Z" fill="#3E8CC7"/>
        <path d="M7.94358 11.625H2.89844V15.6722H7.94358V11.625Z" fill="#FDB62F"/>
        <path d="M4.4081 13.1406H2.89453V14.1524H4.4081V13.1406Z" fill="#FD7B2F"/>
        <path d="M7.93935 13.1406H6.42578V14.1524H7.93935V13.1406Z" fill="#FD7B2F"/>
        <path d="M22.5734 23.77C23.9665 23.77 25.0959 22.6375 25.0959 21.2404C25.0959 19.8434 23.9665 18.7109 22.5734 18.7109C21.1802 18.7109 20.0508 19.8434 20.0508 21.2404C20.0508 22.6375 21.1802 23.77 22.5734 23.77Z" fill="#FDB62F"/>
        <path d="M19.546 23.77C20.9392 23.77 22.0686 22.6375 22.0686 21.2404C22.0686 19.8434 20.9392 18.7109 19.546 18.7109C18.1528 18.7109 17.0234 19.8434 17.0234 21.2404C17.0234 22.6375 18.1528 23.77 19.546 23.77Z" fill="#DE4C3C"/>
        <path d="M5.42161 19.2109H2.39453V20.2227H5.42161V19.2109Z" fill="#87CED9"/>
        <path d="M10.4685 19.2109H7.44141V20.2227H10.4685V19.2109Z" fill="#87CED9"/>
        <path d="M15.5114 19.2109H12.4844V20.2227H15.5114V19.2109Z" fill="#87CED9"/>
        <path d="M15.512 22.25H2.39453V23.2618H15.512V22.25Z" fill="#87CED9"/>
        <path d="M19.0403 11.625H18.0312V13.6486H19.0403V11.625Z" fill="#87CED9"/>
        <path d="M21.0598 11.625H20.0508V13.6486H21.0598V11.625Z" fill="#87CED9"/>
        <path d="M23.0793 11.625H22.0703V13.6486H23.0793V11.625Z" fill="#87CED9"/>
        <path d="M25.0988 11.625H24.0898V13.6486H25.0988V11.625Z" fill="#87CED9"/>
    </g>
    <path d="M38.762 15.0272V7.15625H44.4583V8.39311H40.1188V10.3271H42.2942C43.1763 10.3271 43.8715 10.5258 44.3798 10.9231C44.8882 11.3129 45.1423 11.8751 45.1423 12.6097V12.6209C45.1423 13.378 44.877 13.9702 44.3462 14.3975C43.8154 14.8173 43.1015 15.0272 42.2045 15.0272H38.762ZM40.1188 13.7903H42.2381C42.7016 13.7903 43.0679 13.6929 43.337 13.498C43.6136 13.3031 43.7519 13.022 43.7519 12.6547V12.6434C43.7519 12.2761 43.6211 12.0025 43.3594 11.8226C43.0978 11.6352 42.7315 11.5415 42.2605 11.5415H40.1188V13.7903Z" fill="white"/>
    <path d="M48.2266 15.1509C47.6361 15.1509 47.1352 14.9897 46.724 14.6674C46.3204 14.345 46.1185 13.8953 46.1185 13.3181V13.2956C46.1185 12.6659 46.3391 12.1899 46.7801 11.8676C47.2286 11.5452 47.8267 11.3841 48.5742 11.3841C49.12 11.3841 49.6507 11.4665 50.1665 11.6314V11.4853C50.1665 10.6232 49.6769 10.1922 48.6976 10.1922C48.1594 10.1922 47.5949 10.3159 47.0044 10.5632L46.6343 9.49504C47.3894 9.17271 48.1369 9.01154 48.877 9.01154C49.7591 9.01154 50.4132 9.23268 50.8393 9.67495C51.2655 10.1022 51.4785 10.7132 51.4785 11.5078V15.0272H50.1553V14.2851C49.6769 14.8623 49.034 15.1509 48.2266 15.1509ZM48.6079 14.1614C49.0639 14.1614 49.4414 14.0452 49.7404 13.8128C50.0395 13.5729 50.189 13.2656 50.189 12.8908V12.486C49.7853 12.3286 49.3368 12.2499 48.8434 12.2499C48.4023 12.2499 48.0584 12.3361 47.8117 12.5085C47.5725 12.6809 47.4529 12.9245 47.4529 13.2394V13.2618C47.4529 13.5392 47.5613 13.7603 47.7781 13.9253C47.9949 14.0827 48.2715 14.1614 48.6079 14.1614Z" fill="white"/>
    <path d="M53.0923 15.0272V9.09025H54.4603V11.4178H57.1964V9.09025H58.5532V15.0272H57.1964V12.6659H54.4603V15.0272H53.0923Z" fill="white"/>
    <path d="M61.6001 9.09025V11.4403H62.2729L64.1567 9.09025H65.8275L63.3381 11.9913L65.906 15.0272H64.2688L62.2953 12.6209H61.6001V15.0272H60.232V9.09025H61.6001Z" fill="white"/>
    <path d="M69.4091 15.1621C68.512 15.1621 67.7645 14.866 67.1664 14.2738C66.5684 13.6741 66.2694 12.947 66.2694 12.0925V12.07C66.2694 11.2079 66.5721 10.477 67.1776 9.87734C67.7832 9.27016 68.5345 8.96656 69.4315 8.96656C70.3361 8.96656 71.0874 9.26641 71.6854 9.8661C72.2835 10.4583 72.5825 11.1854 72.5825 12.0475V12.07C72.5825 12.917 72.2797 13.6441 71.6742 14.2513C71.0687 14.8585 70.3136 15.1621 69.4091 15.1621ZM69.4315 13.9702C69.9698 13.9702 70.4034 13.7903 70.7323 13.4305C71.0612 13.0632 71.2257 12.6172 71.2257 12.0925V12.07C71.2257 11.5377 71.0537 11.088 70.7099 10.7207C70.366 10.3459 69.9324 10.1584 69.4091 10.1584C68.8783 10.1584 68.4485 10.3421 68.1196 10.7094C67.7906 11.0692 67.6262 11.5152 67.6262 12.0475V12.07C67.6262 12.5947 67.7981 13.0445 68.142 13.4193C68.4859 13.7866 68.9157 13.9702 69.4315 13.9702Z" fill="white"/>
    <path d="M73.9531 15.0272V9.09025H76.9694C77.6049 9.09025 78.1057 9.22518 78.472 9.49504C78.8383 9.75741 79.0215 10.1322 79.0215 10.6195V10.6307C79.0215 11.2529 78.7113 11.6914 78.0908 11.9463C78.8757 12.1936 79.2682 12.6659 79.2682 13.363V13.3743C79.2682 13.9065 79.0589 14.3151 78.6402 14.5999C78.2291 14.8848 77.6759 15.0272 76.9807 15.0272H73.9531ZM75.2874 11.5527H76.7003C77.0292 11.5527 77.2759 11.4853 77.4404 11.3503C77.6049 11.2154 77.6871 11.0317 77.6871 10.7994V10.7881C77.6871 10.5782 77.6049 10.4058 77.4404 10.2709C77.2759 10.136 77.0405 10.0722 76.734 10.0797H75.2874V11.5527ZM75.2874 12.5085V14.0377H76.9022C77.5974 14.0377 77.945 13.7866 77.945 13.2843V13.2731C77.945 13.0332 77.8478 12.8458 77.6535 12.7109C77.4666 12.5685 77.1974 12.501 76.8461 12.5085H75.2874Z" fill="white"/>
    <path d="M83.3802 15.1621C82.5055 15.1621 81.7766 14.866 81.1935 14.2738C80.6105 13.6741 80.3189 12.947 80.3189 12.0925V12.07C80.3189 11.2154 80.6105 10.4845 81.1935 9.87734C81.7841 9.27016 82.5205 8.96656 83.4026 8.96656C84.337 8.96656 85.1257 9.30764 85.7686 9.98979L84.9164 10.9006C84.4454 10.4058 83.9371 10.1584 83.3914 10.1584C82.9055 10.1584 82.498 10.3421 82.1691 10.7094C81.8402 11.0767 81.6757 11.5227 81.6757 12.0475V12.07C81.6757 12.6022 81.8402 13.052 82.1691 13.4193C82.5055 13.7866 82.9316 13.9702 83.4474 13.9702C83.9857 13.9702 84.4978 13.7266 84.9837 13.2394L85.8022 14.0489C85.4808 14.4088 85.1332 14.6861 84.7594 14.881C84.3856 15.0684 83.9259 15.1621 83.3802 15.1621Z" fill="white"/>
    <path d="M88.407 9.09025V11.4403H89.0798L90.9636 9.09025H92.6344L90.1451 11.9913L92.7129 15.0272H91.0758L89.1022 12.6209H88.407V15.0272H87.0389V9.09025H88.407Z" fill="white"/>
    <path d="M95.2811 15.1509C94.6905 15.1509 94.1897 14.9897 93.7785 14.6674C93.3748 14.345 93.173 13.8953 93.173 13.3181V13.2956C93.173 12.6659 93.3935 12.1899 93.8346 11.8676C94.2831 11.5452 94.8812 11.3841 95.6287 11.3841C96.1744 11.3841 96.7052 11.4665 97.221 11.6314V11.4853C97.221 10.6232 96.7314 10.1922 95.7521 10.1922C95.2138 10.1922 94.6494 10.3159 94.0589 10.5632L93.6888 9.49504C94.4439 9.17271 95.1914 9.01154 95.9315 9.01154C96.8136 9.01154 97.4677 9.23268 97.8938 9.67495C98.3199 10.1022 98.533 10.7132 98.533 11.5078V15.0272H97.2098V14.2851C96.7314 14.8623 96.0885 15.1509 95.2811 15.1509ZM95.6624 14.1614C96.1184 14.1614 96.4959 14.0452 96.7949 13.8128C97.0939 13.5729 97.2435 13.2656 97.2435 12.8908V12.486C96.8398 12.3286 96.3912 12.2499 95.8979 12.2499C95.4568 12.2499 95.1129 12.3361 94.8662 12.5085C94.627 12.6809 94.5074 12.9245 94.5074 13.2394V13.2618C94.5074 13.5392 94.6158 13.7603 94.8326 13.9253C95.0494 14.0827 95.326 14.1614 95.6624 14.1614Z" fill="white"/>
    <path d="M101.324 15.0272H99.7655L101.358 12.8571C100.932 12.7221 100.595 12.501 100.349 12.1936C100.102 11.8863 99.9785 11.5115 99.9785 11.0692V11.058C99.9785 10.4208 100.192 9.93357 100.618 9.59624C101.051 9.25142 101.642 9.08275 102.389 9.09025H105.226V15.0272H103.881V13.0032H102.771L101.324 15.0272ZM103.881 10.1584H102.445C102.094 10.1584 101.818 10.2409 101.616 10.4058C101.414 10.5632 101.313 10.7844 101.313 11.0692V11.0805C101.313 11.3578 101.41 11.579 101.604 11.7439C101.806 11.9088 102.083 11.9913 102.434 11.9913H103.881V10.1584Z" fill="white"/>
    <path d="M39.9618 22.2085V24.5585H40.6346L42.5184 22.2085H44.1892L41.6998 25.1095L44.2677 28.1454H42.6306L40.657 25.7391H39.9618V28.1454H38.5938V22.2085H39.9618Z" fill="white"/>
    <path d="M46.8359 28.2691C46.2453 28.2691 45.7445 28.1079 45.3333 27.7856C44.9296 27.4633 44.7278 27.0135 44.7278 26.4363V26.4138C44.7278 25.7841 44.9483 25.3081 45.3894 24.9858C45.8379 24.6635 46.436 24.5023 47.1835 24.5023C47.7292 24.5023 48.26 24.5847 48.7758 24.7497V24.6035C48.7758 23.7414 48.2862 23.3104 47.3069 23.3104C46.7686 23.3104 46.2042 23.4341 45.6137 23.6815L45.2436 22.6133C45.9987 22.2909 46.7462 22.1298 47.4863 22.1298C48.3684 22.1298 49.0225 22.3509 49.4486 22.7932C49.8747 23.2204 50.0878 23.8314 50.0878 24.626V28.1454H48.7646V27.4033C48.2862 27.9805 47.6433 28.2691 46.8359 28.2691ZM47.2172 27.2796C47.6732 27.2796 48.0507 27.1634 48.3497 26.931C48.6487 26.6912 48.7983 26.3838 48.7983 26.009V25.6042C48.3946 25.4468 47.946 25.3681 47.4527 25.3681C47.0116 25.3681 46.6677 25.4543 46.421 25.6267C46.1818 25.7991 46.0622 26.0427 46.0622 26.3576V26.3801C46.0622 26.6574 46.1706 26.8786 46.3874 27.0435C46.6042 27.2009 46.8808 27.2796 47.2172 27.2796Z" fill="white"/>
    <path d="M51.7015 29.9445V22.2085H53.0696V23.198C53.5929 22.4558 54.2657 22.0848 55.088 22.0848C55.8281 22.0848 56.471 22.3621 57.0167 22.9169C57.5624 23.4716 57.8353 24.2212 57.8353 25.1657V25.1882C57.8353 26.1327 57.5624 26.8823 57.0167 27.437C56.4784 27.9917 55.8355 28.2691 55.088 28.2691C54.2657 28.2691 53.5929 27.9205 53.0696 27.2234V29.9445H51.7015ZM53.5405 26.56C53.8769 26.9123 54.2844 27.0885 54.7628 27.0885C55.2412 27.0885 55.6412 26.916 55.9626 26.5712C56.2915 26.2189 56.456 25.7579 56.456 25.1882V25.1657C56.456 24.6035 56.2915 24.1462 55.9626 23.7939C55.6337 23.4416 55.2338 23.2654 54.7628 23.2654C54.2844 23.2654 53.8769 23.4453 53.5405 23.8051C53.2041 24.1575 53.0359 24.611 53.0359 25.1657V25.1882C53.0359 25.7429 53.2041 26.2002 53.5405 26.56Z" fill="white"/>
    <path d="M60.5661 28.1454V23.4228H58.4579V22.2085H64.031V23.4228H61.9229V28.1454H60.5661Z" fill="white"/>
    <path d="M66.6235 28.2691C66.033 28.2691 65.5321 28.1079 65.121 27.7856C64.7173 27.4633 64.5154 27.0135 64.5154 26.4363V26.4138C64.5154 25.7841 64.736 25.3081 65.177 24.9858C65.6256 24.6635 66.2236 24.5023 66.9712 24.5023C67.5169 24.5023 68.0476 24.5847 68.5635 24.7497V24.6035C68.5635 23.7414 68.0738 23.3104 67.0945 23.3104C66.5563 23.3104 65.9919 23.4341 65.4013 23.6815L65.0312 22.6133C65.7863 22.2909 66.5338 22.1298 67.2739 22.1298C68.156 22.1298 68.8102 22.3509 69.2363 22.7932C69.6624 23.2204 69.8754 23.8314 69.8754 24.626V28.1454H68.5522V27.4033C68.0738 27.9805 67.4309 28.2691 66.6235 28.2691ZM67.0048 27.2796C67.4608 27.2796 67.8383 27.1634 68.1373 26.931C68.4364 26.6912 68.5859 26.3838 68.5859 26.009V25.6042C68.1822 25.4468 67.7337 25.3681 67.2403 25.3681C66.7992 25.3681 66.4553 25.4543 66.2087 25.6267C65.9694 25.7991 65.8498 26.0427 65.8498 26.3576V26.3801C65.8498 26.6574 65.9582 26.8786 66.175 27.0435C66.3918 27.2009 66.6684 27.2796 67.0048 27.2796Z" fill="white"/>
    <defs>
        <clipPath id="clip0_1006_1104">
            <rect width="28.9678" height="29.0475" fill="white" transform="translate(0.375 0.03125)"/>
        </clipPath>
    </defs>
</svg>
