<svg xmlns="http://www.w3.org/2000/svg" width="83" height="42" viewBox="0 0 83 42" fill="none">
    <g clip-path="url(#clip0_997_1600)">
        <path d="M71.1833 12.2976V22.4195H67.5789V15.3192H64.1083V22.4195H60.5039V12.2969H71.1833V12.2976Z" fill="#ECEDF0"/>
        <path fill-rule="evenodd" clip-rule="evenodd" d="M53.1006 22.7807C56.3272 22.7807 58.7233 20.7969 58.7233 17.7895C58.7233 14.8786 56.9555 12.9886 54.001 12.9886C52.6375 12.9886 51.5124 13.4699 50.665 14.3004C50.8673 12.5839 52.3148 11.3309 53.9085 11.3309C54.2763 11.3309 57.0453 11.325 57.0453 11.325L58.6111 8.32031C58.6111 8.32031 55.1347 8.39966 53.5186 8.39966C49.8262 8.46418 47.332 11.8298 47.332 15.9174C47.332 20.6796 49.7646 22.7807 53.1006 22.7807ZM53.1202 15.6501C54.3182 15.6501 55.1488 16.4394 55.1488 17.7891C55.1488 19.0039 54.4108 20.0048 53.1202 20.0075C51.8857 20.0075 51.0551 19.0801 51.0551 17.8098C51.0551 16.4598 51.8857 15.6501 53.1202 15.6501Z" fill="#ECEDF0"/>
        <path d="M44.3985 19.0251C44.3985 19.0251 43.5473 19.5171 42.276 19.6103C40.8144 19.6538 39.5122 18.7281 39.5122 17.0834C39.5122 15.4791 40.6613 14.5597 42.2392 14.5597C43.2067 14.5597 44.4866 15.2321 44.4866 15.2321C44.4866 15.2321 45.4232 13.5088 45.9083 12.6469C45.0199 11.9718 43.8367 11.6016 42.4604 11.6016C38.9871 11.6016 36.2969 13.8724 36.2969 17.0631C36.2969 20.2944 38.8254 22.5125 42.4604 22.4456C43.4765 22.4076 44.8782 22.0498 45.7325 21.4996L44.3985 19.0251Z" fill="#ECEDF0"/>
        <path d="M0.0742188 9.48438L5.07415 18.446V23.9124L0.0800678 32.8564L0.0742188 9.48438Z" fill="#5B57A2"/>
        <path d="M19.2695 15.1853L23.9546 12.3058L33.543 12.2969L19.2695 21.065V15.1853Z" fill="#D90751"/>
        <path d="M19.2469 9.43544L19.2734 21.3003L14.2617 18.2125V0.476562L19.2469 9.43544Z" fill="#FAB718"/>
        <path d="M33.5468 12.3004L23.9581 12.3094L19.2469 9.43544L14.2617 0.476562L33.5468 12.3004Z" fill="#ED6F26"/>
        <path d="M19.2734 32.9107V27.1542L14.2617 24.125L14.2645 41.8785L19.2734 32.9107Z" fill="#63B22F"/>
        <path d="M23.9454 30.0528L5.07381 18.446L0.0742188 9.48438L33.5251 30.0411L23.9454 30.0528Z" fill="#1487C9"/>
        <path d="M14.2656 41.8797L19.2738 32.9118L23.9472 30.0586L33.527 30.0469L14.2656 41.8797Z" fill="#017F36"/>
        <path d="M0.0820312 32.8569L14.3032 24.1212L9.52211 21.1797L5.07612 23.9129L0.0820312 32.8569Z" fill="#984995"/>
        <path d="M39.512 29.2264C39.4019 29.3672 39.2571 29.4734 39.0833 29.5452C38.905 29.618 38.7143 29.655 38.5218 29.6542C38.3304 29.6568 38.14 29.6248 37.9599 29.5597C37.7982 29.5008 37.6503 29.4089 37.5257 29.2899C37.4027 29.1707 37.3061 29.0268 37.2422 28.8676C37.1731 28.6932 37.1386 28.507 37.1407 28.3194C37.1407 28.1331 37.1727 27.9606 37.2391 27.797C37.3028 27.6332 37.3953 27.4927 37.5113 27.3747C37.6272 27.2543 37.7662 27.1626 37.9224 27.0908C38.0817 27.0218 38.2555 26.9845 38.4464 26.9845C38.6522 26.9845 38.8431 27.0104 39.0169 27.0618C39.1906 27.1136 39.3383 27.1998 39.4597 27.3206L39.2485 27.6794C39.1463 27.5865 39.0259 27.516 38.8951 27.4724C38.7707 27.4322 38.6408 27.4119 38.5101 27.4123C38.3945 27.4123 38.2844 27.4351 38.1774 27.4782C38.0719 27.5208 37.9756 27.5832 37.8935 27.6621C37.8097 27.7433 37.7436 27.841 37.6995 27.9492C37.6503 28.061 37.6272 28.1845 37.6272 28.3221C37.6272 28.4629 37.653 28.5892 37.7022 28.6982C37.7518 28.8103 37.8182 28.9052 37.9021 28.9852C37.9861 29.066 38.0845 29.126 38.1973 29.1664C38.3105 29.2095 38.4292 29.2295 38.5565 29.2295C38.7127 29.2295 38.8548 29.1978 38.9763 29.1374C39.0966 29.0791 39.2048 28.9983 39.2949 28.8993L39.512 29.2264ZM40.1083 29.5938V27.039H40.5659V28.9425L42.0539 27.039H42.5116V29.5942H42.0539V27.6908L40.5659 29.5942L40.1083 29.5938ZM45.5428 29.2264C45.4302 29.3684 45.2825 29.4783 45.1144 29.5452C44.936 29.6179 44.7451 29.655 44.5525 29.6542C44.3612 29.6568 44.171 29.6248 43.991 29.5597C43.8292 29.5008 43.6812 29.4089 43.5565 29.2899C43.4334 29.1707 43.3368 29.0268 43.273 28.8676C43.2038 28.6932 43.1694 28.507 43.1715 28.3194C43.1715 28.1331 43.2035 27.9606 43.2699 27.797C43.3339 27.6332 43.4264 27.4927 43.542 27.3747C43.658 27.2543 43.797 27.1626 43.9532 27.0908C44.1182 27.0179 44.2969 26.9817 44.4772 26.9845C44.6829 26.9845 44.8739 27.0104 45.0476 27.0618C45.2214 27.1136 45.369 27.1998 45.4908 27.3206L45.2792 27.6794C45.1772 27.5865 45.057 27.516 44.9262 27.4724C44.8018 27.4322 44.6719 27.412 44.5412 27.4123C44.3112 27.4131 44.0903 27.5025 43.9243 27.6621C43.8411 27.7439 43.7752 27.8415 43.7302 27.9492C43.681 28.061 43.658 28.1845 43.658 28.3221C43.658 28.4629 43.6841 28.5892 43.7333 28.6982C43.7825 28.8103 43.8489 28.9052 43.9329 28.9852C44.0168 29.066 44.1156 29.126 44.2284 29.1664C44.3413 29.2064 44.46 29.2295 44.5873 29.2295C44.7438 29.2295 44.8828 29.1978 45.007 29.1374C45.1274 29.0791 45.2355 28.9983 45.3257 28.8993L45.5428 29.2264ZM45.7774 27.039H48.1253V27.4927H47.1815V29.5938H46.7239V27.4927H45.7802V27.039H45.7774Z" fill="#ECEDF0"/>
        <path fill-rule="evenodd" clip-rule="evenodd" d="M50.2587 29.5709C50.4324 29.5164 50.58 29.4329 50.7073 29.3184L50.5683 28.9623C50.4844 29.0372 50.3715 29.1003 50.2356 29.1521C50.0994 29.2038 49.9459 29.2294 49.778 29.2294C49.5262 29.2294 49.3177 29.1635 49.1525 29.0286C48.9877 28.8933 48.8979 28.7043 48.8776 28.4628H50.858C50.8783 28.3737 50.8869 28.2734 50.8869 28.1557C50.8869 27.9804 50.8549 27.8228 50.7913 27.6792C50.732 27.5399 50.6455 27.4139 50.5367 27.3087C50.4264 27.2045 50.2964 27.1236 50.1544 27.0706C50.0058 27.0128 49.8477 26.9836 49.6882 26.9844C49.4739 26.9844 49.2857 27.0217 49.1209 27.0907C48.9651 27.1564 48.8241 27.2531 48.7066 27.3749C48.5925 27.4961 48.5049 27.6398 48.4493 27.7969C48.3881 27.9641 48.3577 28.1411 48.3594 28.3192C48.3594 28.5204 48.3942 28.7039 48.4579 28.8678C48.5198 29.0266 48.6145 29.1704 48.7359 29.2898C48.8546 29.4071 48.9991 29.4964 49.1701 29.5595C49.3531 29.6247 49.5463 29.6567 49.7405 29.6541C49.9164 29.653 50.0912 29.6247 50.2587 29.5709ZM49.1006 27.6044C49.2423 27.4753 49.4305 27.4122 49.6679 27.4122C49.8909 27.4122 50.0705 27.4726 50.2009 27.5933C50.3313 27.7137 50.4004 27.8804 50.4121 28.0926H48.8487C48.8709 27.9047 48.9604 27.731 49.1006 27.6044Z" fill="#ECEDF0"/>
        <path d="M51.5117 27.0391H51.9287L52.9189 28.3053L53.8569 27.0391H54.2622V29.5942H53.8049V27.7312L52.9131 28.9166H52.8955L51.9693 27.7308V29.5939H51.5117V27.0391Z" fill="#ECEDF0"/>
        <path fill-rule="evenodd" clip-rule="evenodd" d="M55.5076 27.0495C55.3688 27.0859 55.2361 27.1428 55.114 27.2185L55.2355 27.5808C55.3397 27.5291 55.444 27.4859 55.5482 27.4487C55.6525 27.4111 55.7856 27.3938 55.9449 27.3938C56.0722 27.3938 56.1737 27.4142 56.2518 27.4542C56.3299 27.4915 56.3877 27.5491 56.4283 27.6181C56.4689 27.6871 56.4951 27.773 56.5095 27.8734C56.524 27.9738 56.5298 28.0828 56.5298 28.2008C56.4362 28.1354 56.3295 28.0912 56.2171 28.0714C56.1084 28.0497 55.9979 28.0382 55.8871 28.0369C55.7509 28.0369 55.6236 28.0573 55.5018 28.0914C55.3803 28.1259 55.2761 28.1777 55.1921 28.2467C55.1064 28.3156 55.0372 28.4028 54.9895 28.502C54.9385 28.6106 54.9127 28.7294 54.9141 28.8494C54.9141 29.0992 54.9867 29.2945 55.1312 29.4325C55.2761 29.5701 55.467 29.6388 55.7044 29.6388C55.9188 29.6388 56.0898 29.6015 56.2198 29.527C56.3502 29.4521 56.4545 29.3662 56.5298 29.2686V29.5988H56.9582V28.0314C56.9582 27.6981 56.8859 27.44 56.7383 27.2589C56.5935 27.0781 56.3358 26.9864 55.9711 26.9864C55.8087 26.9864 55.6552 27.0091 55.5076 27.0495ZM56.2725 29.1196C56.1682 29.1941 56.032 29.2282 55.8641 29.2282C55.7165 29.2282 55.6005 29.191 55.5197 29.1192C55.4385 29.0447 55.3979 28.947 55.3979 28.8263C55.3979 28.7549 55.4123 28.6945 55.4443 28.64C55.4763 28.5855 55.5197 28.5424 55.5689 28.5079C55.6227 28.4718 55.6824 28.4455 55.7454 28.4302C55.8121 28.413 55.8785 28.4043 55.948 28.4043C56.1741 28.4043 56.3678 28.4589 56.5271 28.5737V28.8981C56.452 28.9824 56.3664 29.0571 56.2725 29.1196ZM60.9975 26.1421C61.0901 26.0993 61.1768 26.0276 61.258 25.9213L61.0089 25.5625C60.9452 25.6488 60.873 25.7088 60.7918 25.7405C60.7057 25.7743 60.6165 25.7992 60.5255 25.815L60.4388 25.8306C60.3634 25.8437 60.2825 25.8582 60.1955 25.8727C60.0559 25.8986 59.9198 25.9409 59.7902 25.9989C59.5844 26.088 59.4196 26.2084 59.2951 26.3605C59.1705 26.5127 59.0721 26.6848 59.0054 26.8746C58.9378 27.0668 58.8922 27.2661 58.8695 27.4687C58.8461 27.6757 58.8347 27.8734 58.8347 28.0628C58.8347 28.3071 58.8664 28.5279 58.93 28.7259C58.994 28.9243 59.0835 29.0906 59.2022 29.2255C59.3209 29.3635 59.463 29.467 59.6309 29.5415C59.7988 29.616 59.987 29.6533 60.1983 29.6533C60.3923 29.6533 60.5719 29.616 60.734 29.547C60.8902 29.4807 61.0319 29.3842 61.151 29.2631C61.2666 29.1451 61.3595 29.0043 61.4231 28.8466C61.4895 28.6886 61.5215 28.5192 61.5215 28.3412C61.5215 28.149 61.4926 27.9741 61.4376 27.8189C61.3869 27.6709 61.306 27.535 61.2002 27.42C61.0941 27.307 60.9645 27.2186 60.8207 27.1613C60.6622 27.0987 60.4931 27.0675 60.3228 27.0695C60.2127 27.0695 60.1057 27.084 60.0014 27.1126C59.9 27.1413 59.8027 27.1828 59.7117 27.2361C59.6235 27.2868 59.5427 27.3495 59.4716 27.4224C59.4021 27.4946 59.3443 27.5749 59.3037 27.6667H59.292C59.3009 27.5491 59.3154 27.4287 59.3412 27.3051C59.3673 27.1816 59.4048 27.0636 59.4544 26.9519C59.5036 26.8401 59.5672 26.7393 59.6453 26.6476C59.7291 26.5549 59.8318 26.4815 59.9464 26.4323C60.0724 26.3721 60.2058 26.3287 60.3431 26.3032L60.4339 26.2867C60.5244 26.2701 60.6108 26.2542 60.6934 26.237C60.8035 26.2142 60.9046 26.1849 60.9975 26.1421ZM59.3876 28.5969C59.3429 28.4519 59.3214 28.3008 59.324 28.149C59.3434 28.062 59.3787 27.9793 59.4282 27.9051C59.4774 27.8275 59.5411 27.7588 59.6164 27.6981C59.7865 27.5645 59.9967 27.4928 60.2127 27.4946C60.4821 27.4946 60.6848 27.5777 60.8265 27.7416C60.9686 27.9079 61.0381 28.1145 61.0381 28.3643C61.0381 28.4878 61.0147 28.6 60.9745 28.7031C60.9353 28.8049 60.8762 28.8977 60.8006 28.9761C60.725 29.0545 60.6345 29.1169 60.5344 29.1596C60.4302 29.2055 60.3169 29.2286 60.1896 29.2286C60.0623 29.2286 59.9464 29.2027 59.8394 29.151C59.733 29.1002 59.6391 29.0267 59.5641 28.9357C59.4857 28.8342 59.4259 28.7194 59.3876 28.5969ZM65.0306 27.0409H64.573V29.596H65.0306V27.0409ZM62.1814 27.0409H62.639V27.8075H63.0619C63.2615 27.8075 63.4235 27.8334 63.5539 27.882C63.6843 27.931 63.7886 27.9969 63.8667 28.0773C63.9448 28.1577 63.9998 28.2525 64.0318 28.3585C64.0635 28.4647 64.081 28.5737 64.081 28.6886C64.081 28.8035 64.0635 28.9129 64.026 29.0219C63.9912 29.1309 63.9303 29.2255 63.8491 29.3117C63.7683 29.398 63.6582 29.467 63.5192 29.5187C63.3802 29.5701 63.2123 29.5988 63.0096 29.5988H62.1787V27.0409H62.1814ZM62.639 28.2349V29.171H62.9721C63.2009 29.171 63.3629 29.1309 63.4555 29.0502C63.5484 28.9698 63.5945 28.8553 63.5945 28.7031C63.5945 28.5479 63.5453 28.4306 63.4528 28.3498C63.3571 28.2694 63.1978 28.2291 62.9779 28.2291H62.639V28.2349Z" fill="#ECEDF0"/>
        <path d="M68.055 29.2264C67.9449 29.3672 67.8 29.4734 67.6263 29.5452C67.448 29.6179 67.2572 29.655 67.0648 29.6542C66.8733 29.6568 66.683 29.6248 66.5029 29.5597C66.3411 29.5009 66.1932 29.409 66.0687 29.2899C65.9456 29.1706 65.8489 29.0267 65.7848 28.8676C65.716 28.6932 65.6816 28.507 65.6837 28.3194C65.6837 28.1331 65.7153 27.9606 65.7821 27.797C65.8457 27.6332 65.9383 27.4927 66.0542 27.3747C66.1702 27.2543 66.3088 27.1626 66.4654 27.0908C66.6304 27.0179 66.8091 26.9817 66.9894 26.9845C67.1948 26.9845 67.3861 27.0104 67.5599 27.0618C67.7336 27.1136 67.8812 27.1998 68.0027 27.3206L67.7914 27.6794C67.6892 27.5865 67.5689 27.516 67.4381 27.4724C67.3137 27.4322 67.1837 27.4119 67.0531 27.4123C66.9375 27.4123 66.8274 27.4351 66.72 27.4782C66.6147 27.5208 66.5184 27.5833 66.4365 27.6621C66.3532 27.7438 66.2872 27.8414 66.2424 27.9492C66.1932 28.061 66.1702 28.1845 66.1702 28.3221C66.1702 28.4629 66.196 28.5892 66.2452 28.6982C66.2944 28.8103 66.3611 28.9052 66.4451 28.9852C66.5291 29.066 66.6275 29.126 66.7403 29.1664C66.8535 29.2064 66.9722 29.2295 67.0995 29.2295C67.2557 29.2295 67.3947 29.1978 67.5193 29.1374C67.6396 29.0791 67.7478 28.9983 67.8379 28.8993L68.055 29.2264ZM68.2893 27.039H70.6375V27.4927H69.6934V29.5938H69.2361V27.4927H68.2924V27.039H68.2893Z" fill="#ECEDF0"/>
        <path fill-rule="evenodd" clip-rule="evenodd" d="M71.5904 27.0422H71.1328V30.7338H71.5904V29.4793C71.683 29.5397 71.7931 29.5828 71.9204 29.6115C72.0477 29.6401 72.1808 29.6542 72.3171 29.6542C72.5197 29.6542 72.7021 29.617 72.8672 29.5483C73.0256 29.4804 73.1692 29.3819 73.2898 29.2585C73.4085 29.1347 73.4983 28.9911 73.5619 28.8217C73.6256 28.6527 73.6576 28.4716 73.6576 28.2794C73.6576 28.0896 73.6287 27.9147 73.5736 27.7567C73.5218 27.6066 73.4411 27.4682 73.3362 27.3492C73.2332 27.2332 73.1055 27.1419 72.9625 27.0822C72.8063 27.0149 72.6375 26.9816 72.4674 26.9846C72.2882 26.9846 72.1203 27.0191 71.961 27.0881C71.8017 27.1571 71.6771 27.2399 71.5904 27.3434V27.0422ZM71.909 27.5159C72.0394 27.4469 72.1812 27.4124 72.3346 27.4124C72.4678 27.4124 72.5865 27.4324 72.6938 27.4755C72.7981 27.5186 72.8848 27.579 72.9574 27.6594C73.0296 27.7398 73.0847 27.8319 73.1194 27.9406C73.1569 28.0496 73.1745 28.1676 73.1745 28.2966C73.1745 28.4346 73.1511 28.5578 73.1108 28.6727C73.0729 28.7816 73.0126 28.8814 72.934 28.9656C72.855 29.0488 72.7593 29.1143 72.6532 29.1578C72.535 29.2074 72.4077 29.2319 72.2796 29.2295C72.1554 29.2295 72.0394 29.2154 71.9293 29.1868C71.8088 29.1539 71.6944 29.1014 71.5908 29.0315V27.7653C71.6716 27.668 71.779 27.5849 71.909 27.5159ZM77.1667 27.0418H76.7091V29.597H77.1667V27.0418ZM74.3147 27.0418H74.7723V27.8084H75.1948C75.3947 27.8084 75.5568 27.8343 75.6872 27.883C75.8176 27.932 75.9218 27.9979 75.9999 28.0782C76.078 28.1586 76.1331 28.2535 76.1647 28.3594C76.1967 28.4657 76.2139 28.5747 76.2139 28.6896C76.2139 28.8045 76.1967 28.9139 76.1592 29.0229C76.1245 29.1319 76.0636 29.2264 75.9824 29.3127C75.9015 29.3989 75.7914 29.4679 75.6524 29.5197C75.5134 29.5711 75.3455 29.5997 75.1429 29.5997H74.312V27.0418H74.3147ZM74.7754 28.2359V29.1719H75.1085C75.3369 29.1719 75.4993 29.1319 75.5919 29.0512C75.6844 28.9708 75.7309 28.8562 75.7309 28.7041C75.7309 28.5488 75.6817 28.4315 75.5891 28.3508C75.4935 28.2704 75.3342 28.23 75.1143 28.23H74.7754V28.2359Z" fill="#ECEDF0"/>
        <path d="M79.3667 28.2707L80.3453 29.5942H79.7837L79.0278 28.5606L78.2606 29.5942H77.728L78.7006 28.2935L77.7858 27.0391H78.3476L79.0454 28.0037L79.7545 27.0391H80.2875L79.3667 28.2707ZM39.1742 32.7521H37.7701V34.8822H37.3125V32.3274H39.6315V34.8822H39.1742V32.7521ZM42.2285 32.7807H41.3253L41.2961 33.2113C41.2644 33.576 41.2211 33.8689 41.1602 34.0924C41.0993 34.3167 41.0239 34.4889 40.9372 34.6093C40.8505 34.73 40.749 34.8132 40.6331 34.8535C40.5135 34.897 40.387 34.9184 40.2598 34.9167L40.225 34.4744C40.2742 34.4771 40.332 34.4657 40.3957 34.4371C40.4597 34.4085 40.5233 34.3453 40.5839 34.2508C40.6448 34.1528 40.6998 34.0152 40.749 33.8371C40.7982 33.6564 40.8302 33.4211 40.8474 33.125L40.8939 32.3298H42.6861V34.8849H42.2285V32.7807Z" fill="#ECEDF0"/>
        <path fill-rule="evenodd" clip-rule="evenodd" d="M43.9139 32.3366C43.7659 32.3766 43.6328 32.4339 43.5199 32.5056L43.6417 32.8675C43.746 32.8158 43.8502 32.7727 43.9541 32.7354C44.0584 32.6981 44.1919 32.6809 44.3508 32.6809C44.4785 32.6809 44.5797 32.7009 44.6578 32.7409C44.7362 32.7785 44.794 32.8358 44.8346 32.9048C44.8749 32.9738 44.901 33.0601 44.9155 33.1601C44.9299 33.2609 44.9358 33.3699 44.9358 33.4875C44.8421 33.4222 44.7354 33.3782 44.623 33.3585C44.5143 33.3368 44.4039 33.3253 44.293 33.324C44.1571 33.324 44.0295 33.344 43.908 33.3785C43.7862 33.413 43.682 33.4648 43.598 33.5338C43.5123 33.6026 43.4431 33.6899 43.3954 33.7891C43.3445 33.8977 43.3189 34.0165 43.3204 34.1365C43.3204 34.3859 43.3926 34.5816 43.5375 34.7192C43.682 34.8569 43.8733 34.9259 44.1107 34.9259C44.325 34.9259 44.4957 34.8886 44.6261 34.8137C44.7562 34.7392 44.8604 34.653 44.9358 34.5553V34.8855H45.3645V33.3181C45.3645 32.9852 45.2919 32.7268 45.1443 32.546C44.9994 32.3649 44.7417 32.2734 44.377 32.2734C44.2205 32.2736 44.0648 32.295 43.9139 32.3366ZM44.6811 34.4059C44.5772 34.4808 44.441 34.5153 44.2731 34.5153C44.1224 34.5153 44.0095 34.4781 43.9287 34.4059C43.8475 34.3314 43.8069 34.2338 43.8069 34.1134C43.8069 34.0416 43.8213 33.9812 43.8533 33.9267C43.885 33.8722 43.9287 33.8291 43.9779 33.7946C44.0271 33.7601 44.0876 33.7342 44.1544 33.717C44.2206 33.6998 44.2887 33.6912 44.357 33.6914C44.5827 33.6914 44.7768 33.7459 44.9361 33.8605V34.1848C44.8609 34.2692 44.7752 34.3435 44.6811 34.4059Z" fill="#ECEDF0"/>
        <path d="M45.8164 32.3281H48.1646V32.7815H47.2205V34.8829H46.7633V32.7818H45.8195V32.3281H45.8164Z" fill="#ECEDF0"/>
        <path fill-rule="evenodd" clip-rule="evenodd" d="M50.302 34.8586C50.4757 34.8041 50.6233 34.7206 50.7506 34.606L50.6116 34.25C50.5277 34.3248 50.4148 34.388 50.2786 34.4397C50.1427 34.4915 49.9892 34.517 49.8213 34.517C49.5695 34.517 49.361 34.4511 49.1958 34.3162C49.0307 34.1813 48.9412 33.9919 48.9209 33.7504H50.9013C50.9213 33.6617 50.9302 33.561 50.9302 33.4433C50.9302 33.2684 50.8982 33.1104 50.8346 32.9669C50.7753 32.8275 50.6886 32.7016 50.5796 32.5967C50.4696 32.4923 50.3397 32.4112 50.1977 32.3583C50.0491 32.3005 49.8909 32.2712 49.7315 32.272C49.5172 32.272 49.329 32.3093 49.1642 32.3783C49.0083 32.4439 48.8673 32.5406 48.7499 32.6626C48.6358 32.7839 48.5481 32.9275 48.4922 33.0845C48.4312 33.2518 48.4008 33.4288 48.4024 33.6069C48.4024 33.808 48.4372 33.9916 48.5008 34.1554C48.5648 34.319 48.6601 34.4597 48.7788 34.5774C48.8975 34.695 49.0424 34.784 49.2134 34.8472C49.3963 34.9124 49.5893 34.9445 49.7835 34.9421C49.9545 34.9421 50.1282 34.9131 50.302 34.8586ZM49.1411 32.8893C49.2829 32.7602 49.4711 32.6971 49.7085 32.6971C49.9345 32.6971 50.111 32.7602 50.2414 32.8779C50.3715 32.9986 50.441 33.1649 50.4527 33.3774H48.8893C48.9113 33.1895 49.0008 33.0159 49.1411 32.8893ZM51.1532 32.3296H51.7323L52.6151 33.5613L51.6714 34.8844H51.1098L52.0997 33.561L51.1532 32.3296ZM52.728 32.3296H53.1856V34.8844H52.728V32.3296ZM54.8213 34.8844L53.8138 33.561L54.7549 32.3293H54.1872L53.2984 33.561L54.2539 34.8844H54.8213ZM56.9118 34.8586C57.0855 34.8041 57.2331 34.7206 57.3604 34.606L57.2215 34.25C57.1375 34.3248 57.0246 34.388 56.8887 34.4397C56.7525 34.4915 56.599 34.517 56.4311 34.517C56.1793 34.517 55.9708 34.4511 55.8056 34.3162C55.6408 34.1813 55.551 33.9919 55.5307 33.7504H57.5112C57.5315 33.6617 57.5401 33.561 57.5401 33.4433C57.5401 33.2684 57.5084 33.1104 57.4444 32.9669C57.3851 32.8276 57.2985 32.7017 57.1898 32.5967C57.0796 32.4923 56.9496 32.4112 56.8075 32.3583C56.6589 32.3005 56.5008 32.2712 56.3413 32.272C56.1273 32.272 55.9391 32.3093 55.774 32.3783C55.6182 32.444 55.4774 32.5407 55.3601 32.6626C55.2458 32.7837 55.158 32.9274 55.1024 33.0845C55.0412 33.2518 55.0108 33.4287 55.0126 33.6069C55.0126 33.808 55.0473 33.9916 55.111 34.1554C55.1746 34.319 55.2703 34.4597 55.389 34.5774C55.5077 34.695 55.6522 34.784 55.8232 34.8472C56.0062 34.9124 56.1994 34.9445 56.3936 34.9421C56.5696 34.9408 56.7443 34.9126 56.9118 34.8586ZM55.7509 32.8893C55.893 32.7602 56.0812 32.6971 56.3186 32.6971C56.5416 32.6971 56.7208 32.7602 56.8512 32.8779C56.9816 32.9986 57.0511 33.1649 57.0625 33.3774H55.4991C55.5211 33.1895 55.6107 33.0159 55.7509 32.8893ZM59.3963 31.4713C59.1269 31.4713 58.9793 31.3219 58.9562 31.0234H58.5248C58.5248 31.138 58.5451 31.2415 58.5826 31.3391C58.6204 31.4368 58.6755 31.5199 58.7477 31.5889C58.82 31.6579 58.9129 31.7124 59.0199 31.7552C59.1269 31.7983 59.2514 31.8183 59.3932 31.8183C59.5236 31.8183 59.6395 31.7983 59.7438 31.7552C59.848 31.7152 59.9347 31.6579 60.0101 31.5889C60.0823 31.5199 60.1405 31.4368 60.1807 31.3391C60.2213 31.2415 60.2416 31.138 60.2416 31.0234H59.8133C59.793 31.3219 59.6509 31.4713 59.3963 31.4713ZM58.1597 32.3293V34.8844H58.6173L60.1054 32.981V34.8844H60.563V32.3293H60.1054L58.6173 34.2327V32.3293H58.1597Z" fill="#ECEDF0"/>
    </g>
    <defs>
        <clipPath id="clip0_997_1600">
            <rect width="82.2313" height="41.4012" fill="white" transform="translate(0.0742188 0.476562)"/>
        </clipPath>
    </defs>
</svg>
