<svg width="109" height="17" viewBox="0 0 109 17" fill="none" xmlns="http://www.w3.org/2000/svg">
<g clip-path="url(#clip0_878_3856)">
<path d="M19.6956 0.504395H17.1077V13.6281H19.6956V0.504395Z" fill="#444444"/>
<path d="M14.1348 1.23876H11.5468V14.3622H14.1348V1.23876Z" fill="#444444"/>
<path d="M8.57391 2.0586H5.98592V15.1846H8.57391V2.0586Z" fill="#444444"/>
<path d="M3.01305 2.88755H0.425049L0.425059 16.0151H3.01306L3.01305 2.88755Z" fill="#444444"/>
<path d="M88.049 7.50218L83.882 2.86911H81.4459V13.5963H83.9894V6.75214L87.7937 10.807H88.2638L92.0028 6.75214V13.5963H94.5463V2.86911H92.1102L88.049 7.50218Z" fill="#444444"/>
<path d="M106.664 2.86911L100.36 9.84137V2.86911H97.8162V13.5963H100.146L106.451 6.624V13.5963H108.994V2.86911H106.664Z" fill="#444444"/>
<path d="M67.7459 6.79433C67.7459 8.50223 68.6799 9.84762 70.1135 10.4117L67.4253 13.5963H70.5385L72.9839 10.6992H75.6301V13.5963H78.1736V2.86911H71.6982C69.2839 2.86911 67.7459 4.52076 67.7459 6.79433ZM75.6317 5.23174V8.40379H72.1698C71.0148 8.40379 70.3953 7.76 70.3953 6.8162C70.3953 5.8724 71.0366 5.22862 72.1698 5.22862L75.6317 5.23174Z" fill="#444444"/>
<path d="M55.9265 5.01454C55.7708 8.70381 54.9925 11.0852 53.4686 11.0852H53.0872V13.6603L53.4935 13.6822C56.5491 13.8525 58.238 11.1711 58.5151 5.31456H62.5342V13.5963H65.0731V2.86911H56.0121L55.9265 5.01454Z" fill="#444444"/>
<path d="M46.3519 2.71924C42.9118 2.71924 40.4368 5.10062 40.4368 8.23204C40.4368 11.4713 43.1297 13.7683 46.3519 13.7683C49.7079 13.7683 52.3152 11.3431 52.3152 8.23204C52.3152 5.12093 49.7079 2.71924 46.3519 2.71924ZM46.3519 11.1931C44.4077 11.1931 43.083 9.92744 43.083 8.23204C43.083 6.49444 44.4093 5.26313 46.3519 5.26313C48.2945 5.26313 49.6644 6.5507 49.6644 8.23204C49.6644 9.91338 48.2759 11.1931 46.3519 11.1931Z" fill="#444444"/>
<path d="M37.7393 2.88935H28.7623L28.6767 5.03478C28.5491 8.12557 27.7427 11.0648 26.2188 11.107L25.5137 11.1289V16.0209L28.079 16.0157V13.5977H36.9905V16.0157H39.5776V11.107H37.7393V2.88935ZM35.1958 11.107H29.7679C30.6863 9.71316 31.1782 7.69586 31.2638 5.33636H35.1958V11.107Z" fill="#444444"/>
</g>
<defs>
<clipPath id="clip0_878_3856">
<rect width="108.575" height="15.5107" fill="white" transform="translate(0.425049 0.504395)"/>
</clipPath>
</defs>
</svg>
