<svg width="123" height="23" viewBox="0 0 123 23" fill="none" xmlns="http://www.w3.org/2000/svg">
<path d="M53.4405 14.9783V10.3739C53.4405 8.63652 52.3593 7.46701 50.6191 7.45166C50.1235 7.41882 49.6284 7.52282 49.1853 7.75281C48.7423 7.98281 48.3676 8.33038 48.1002 8.7593C47.8565 8.34311 47.5079 8.00198 47.0909 7.77184C46.674 7.54171 46.2042 7.4311 45.731 7.45166C45.319 7.43127 44.9089 7.52133 44.5413 7.71297C44.1736 7.90461 43.861 8.19119 43.6344 8.54443V7.62356H42.074V14.9783H43.6494V10.9049C43.6494 9.62799 44.3383 8.95269 45.4046 8.95269C46.4708 8.95269 46.965 9.64334 46.965 10.8896V14.9783H48.5315V10.9049C48.5315 9.62799 49.2503 8.95269 50.2866 8.95269C51.3229 8.95269 51.8621 9.64334 51.8621 10.8896V14.9783H53.4405ZM76.7516 7.6297H74.2028V5.40118H72.6273V7.6297H71.1717V9.09082H72.6273V12.4397C72.6273 14.1464 73.2713 15.1625 75.1163 15.1625C75.8054 15.1647 76.4811 14.9679 77.0661 14.5946L76.6168 13.2255C76.1982 13.4811 75.7231 13.6237 75.2361 13.6399C74.4573 13.6399 74.1998 13.1488 74.1998 12.4121V9.09082H76.7486L76.7516 7.6297ZM90.059 7.44552C89.6785 7.43415 89.3021 7.52825 88.9695 7.71789C88.6368 7.90752 88.3603 8.18565 88.1691 8.52295V7.6297H86.6236V14.9783H88.184V10.8589C88.184 9.63106 88.6932 8.96803 89.7145 8.96803C90.0487 8.96308 90.3805 9.02567 90.691 9.15221L91.1702 7.64504C90.8135 7.51432 90.4378 7.44685 90.059 7.44552ZM69.9407 8.21292C69.0572 7.67498 68.0415 7.40861 67.0144 7.44552C65.1994 7.44552 64.0193 8.33877 64.0193 9.79682C64.0193 10.997 64.8879 11.7337 66.4933 11.9639L67.2271 12.0714C68.0807 12.1942 68.488 12.4244 68.488 12.8388C68.488 13.4066 67.919 13.732 66.8527 13.732C65.9925 13.76 65.1482 13.4896 64.4566 12.9646L63.7467 14.2078C64.6555 14.859 65.7443 15.1936 66.8527 15.1625C68.9223 15.1625 70.1234 14.1618 70.1234 12.7651C70.1234 11.4728 69.1769 10.7975 67.6195 10.5673L66.8856 10.4599C66.2117 10.3678 65.6696 10.2296 65.6696 9.7385C65.6696 9.20132 66.1788 8.87902 67.0354 8.87902C67.8203 8.8909 68.5892 9.10747 69.2698 9.50828L69.9407 8.21292ZM111.729 7.44552C111.348 7.43415 110.972 7.52825 110.639 7.71789C110.307 7.90752 110.03 8.18565 109.839 8.52295V7.6297H108.293V14.9783H109.854V10.8589C109.854 9.63106 110.363 8.96803 111.384 8.96803C111.718 8.96308 112.05 9.02567 112.361 9.15221L112.84 7.64504C112.483 7.51432 112.108 7.44685 111.729 7.44552ZM91.6344 11.304C91.6344 13.5325 93.15 15.1625 95.4592 15.1625C96.3956 15.2099 97.3155 14.8968 98.038 14.2846L97.2892 12.9923C96.7498 13.4133 96.0923 13.6447 95.4143 13.6522C94.1683 13.6522 93.2548 12.7129 93.2548 11.3009C93.2548 9.88891 94.1713 8.96496 95.4143 8.94962C96.0923 8.95713 96.7498 9.18857 97.2892 9.60958L98.038 8.31728C97.3155 7.70505 96.3956 7.3919 95.4592 7.43938C93.15 7.43938 91.6344 9.06933 91.6344 11.2978V11.304ZM106.245 11.304V7.62049H104.684V8.51374C104.418 8.16189 104.074 7.88047 103.68 7.69302C103.286 7.50557 102.854 7.41754 102.42 7.43631C100.41 7.43631 98.8257 9.05091 98.8257 11.2948C98.8257 13.5386 100.401 15.1532 102.42 15.1532C102.854 15.172 103.286 15.084 103.68 14.8965C104.074 14.7091 104.418 14.4277 104.684 14.0758V14.966H106.245V11.304ZM100.44 11.304C100.44 10.0117 101.264 8.95269 102.615 8.95269C103.905 8.95269 104.774 9.96872 104.774 11.304C104.774 12.6393 103.905 13.6553 102.615 13.6553C101.264 13.6553 100.44 12.5932 100.44 11.304ZM81.6127 7.44552C79.5161 7.44552 78.0425 9.01408 78.0425 11.304C78.0425 13.6399 79.573 15.1625 81.7175 15.1625C82.7883 15.2009 83.8354 14.8337 84.6588 14.1311L83.895 12.9462C83.2993 13.4347 82.5613 13.7048 81.7984 13.7136C80.792 13.7136 79.8785 13.2378 79.6539 11.9148H84.9792C84.9942 11.7153 85.0092 11.5158 85.0092 11.3009C85.0092 9.01101 83.6135 7.44245 81.6037 7.44245L81.6127 7.44552ZM81.5828 8.87595C82.5891 8.87595 83.2331 9.52056 83.3978 10.6594H79.6809C79.8456 9.5973 80.4746 8.87595 81.5858 8.87595H81.5828ZM120.714 11.304V4.67676H119.154V8.51988C118.888 8.16803 118.543 7.88661 118.149 7.69916C117.755 7.51171 117.323 7.42368 116.889 7.44245C114.88 7.44245 113.295 9.05705 113.295 11.3009C113.295 13.5448 114.871 15.1594 116.889 15.1594C117.323 15.1782 117.755 15.0901 118.149 14.9027C118.543 14.7152 118.888 14.4338 119.154 14.082V14.9721H120.714V11.304ZM122.538 14.2999C122.6 14.2997 122.661 14.3122 122.718 14.3367C122.773 14.3607 122.822 14.3951 122.865 14.438C122.907 14.4802 122.94 14.5302 122.964 14.5854C122.988 14.6426 123 14.7042 123 14.7665C123 14.8288 122.988 14.8904 122.964 14.9476C122.94 15.0027 122.906 15.0527 122.865 15.0949C122.822 15.1377 122.773 15.1721 122.718 15.1962C122.661 15.221 122.6 15.2336 122.538 15.2331C122.447 15.2342 122.357 15.2078 122.281 15.157C122.204 15.1062 122.143 15.0334 122.107 14.9476C122.083 14.8903 122.071 14.8287 122.071 14.7665C122.071 14.7042 122.083 14.6426 122.107 14.5854C122.154 14.4727 122.242 14.3834 122.353 14.3367C122.413 14.3109 122.478 14.2983 122.544 14.2999H122.538ZM122.538 15.1287C122.586 15.1294 122.632 15.12 122.676 15.1011C122.717 15.0827 122.755 15.0567 122.787 15.0243C122.853 14.9559 122.891 14.8631 122.891 14.7665C122.891 14.6698 122.853 14.5771 122.787 14.5086C122.755 14.4761 122.717 14.45 122.676 14.4319C122.632 14.4131 122.585 14.4037 122.538 14.4043C122.49 14.4036 122.442 14.413 122.397 14.4319C122.344 14.4553 122.297 14.4917 122.26 14.5379C122.224 14.5842 122.199 14.6389 122.188 14.6973C122.176 14.7557 122.179 14.816 122.196 14.873C122.213 14.93 122.243 14.9819 122.284 15.0243C122.316 15.0572 122.355 15.0832 122.397 15.1011C122.444 15.1209 122.494 15.1303 122.544 15.1287H122.538ZM122.565 14.5455C122.61 14.5422 122.655 14.5553 122.691 14.5823C122.706 14.5944 122.717 14.6098 122.725 14.6274C122.733 14.645 122.737 14.6643 122.736 14.6836C122.736 14.7002 122.733 14.7167 122.727 14.7321C122.721 14.7474 122.712 14.7613 122.7 14.7726C122.672 14.7977 122.638 14.8128 122.601 14.8156L122.739 14.9783H122.631L122.502 14.8156H122.46V14.9783H122.37V14.5485L122.565 14.5455ZM122.46 14.6253V14.7419H122.565C122.584 14.7475 122.603 14.7475 122.622 14.7419C122.629 14.7372 122.634 14.7308 122.638 14.7232C122.642 14.7157 122.643 14.7073 122.643 14.6989C122.643 14.6905 122.642 14.6822 122.638 14.6747C122.634 14.6671 122.629 14.6607 122.622 14.656C122.603 14.6504 122.584 14.6504 122.565 14.656L122.46 14.6253ZM114.916 11.304C114.916 10.0117 115.739 8.95269 117.09 8.95269C118.381 8.95269 119.25 9.96872 119.25 11.304C119.25 12.6393 118.381 13.6553 117.09 13.6553C115.739 13.6553 114.916 12.5932 114.916 11.304ZM62.2312 11.304V7.62049H60.6707V8.51374C60.4046 8.16488 60.0613 7.88601 59.6691 7.70025C59.2769 7.51448 58.8471 7.42716 58.4154 7.44552C56.4057 7.44552 54.8213 9.06012 54.8213 11.304C54.8213 13.5479 56.3967 15.1625 58.4154 15.1625C58.8494 15.1812 59.2814 15.0932 59.6753 14.9057C60.0693 14.7183 60.4137 14.4369 60.6797 14.085V14.9752H62.2402L62.2312 11.304ZM56.4266 11.304C56.4266 10.0117 57.2503 8.95269 58.6011 8.95269C59.892 8.95269 60.7606 9.96872 60.7606 11.304C60.7606 12.6393 59.892 13.6553 58.6011 13.6553C57.2503 13.6553 56.4266 12.5963 56.4266 11.304Z" fill="#646464"/>
<path d="M22.1627 2.56738H12.728V19.9443H22.1627V2.56738Z" fill="#575757"/>
<path d="M13.3268 11.2609C13.3255 9.58764 13.6956 7.93602 14.4091 6.43101C15.1226 4.92601 16.1608 3.60705 17.4451 2.57396C15.8544 1.29279 13.9441 0.496099 11.9325 0.274954C9.92093 0.0538094 7.88922 0.41713 6.06959 1.32339C4.24996 2.22965 2.71581 3.64229 1.6425 5.39986C0.569183 7.15742 0 9.18901 0 11.2624C0 13.3358 0.569183 15.3674 1.6425 17.125C2.71581 18.8825 4.24996 20.2952 6.06959 21.2014C7.88922 22.1077 9.92093 22.471 11.9325 22.2499C13.9441 22.0287 15.8544 21.232 17.4451 19.9509C16.1604 18.9175 15.1219 17.598 14.4084 16.0924C13.6949 14.5869 13.325 12.9346 13.3268 11.2609Z" fill="#434343"/>
<path d="M34.892 11.2603C34.8919 13.3339 34.3226 15.3656 33.2491 17.1233C32.1756 18.8809 30.6412 20.2935 28.8214 21.1996C27.0015 22.1058 24.9696 22.4688 22.9579 22.2474C20.9462 22.0259 19.0359 21.2288 17.4453 19.9473C18.7291 18.9133 19.767 17.5939 20.4807 16.0889C21.1944 14.5838 21.5652 12.9322 21.5652 11.2588C21.5652 9.58541 21.1944 7.93386 20.4807 6.42878C19.767 4.92369 18.7291 3.60437 17.4453 2.57036C19.0361 1.28862 20.9467 0.491509 22.9586 0.270162C24.9706 0.0488147 27.0027 0.412166 28.8227 1.31867C30.6427 2.22518 32.177 3.63825 33.2503 5.39633C34.3236 7.1544 34.8925 9.18653 34.892 11.2603Z" fill="#6A6A6A"/>
<path d="M33.8559 18.1031V17.747H33.9967V17.6764H33.6462V17.7501H33.787V18.1062L33.8559 18.1031ZM34.5478 18.1031V17.6733H34.4549L34.3291 17.9803L34.2033 17.6733H34.0925V18.1031H34.1554V17.7808L34.2722 18.0601H34.3531L34.4699 17.7808V18.1062L34.5478 18.1031Z" fill="#6A6A6A"/>
</svg>
