<svg width="66" height="21" viewBox="0 0 66 21" fill="none" xmlns="http://www.w3.org/2000/svg">
<path d="M5.07056 2.50551H10.4681C10.9588 2.50551 12.4309 2.34051 13.0851 4.65048C13.5758 6.13545 14.2301 8.44542 15.2115 11.9104H15.5386C16.52 8.28042 17.3378 5.80546 17.6649 4.65048C18.3191 2.34051 19.9548 2.50551 20.609 2.50551H25.6795V18.3453H20.4455V8.94041H20.1183L17.3378 18.3453H13.4123L10.6317 8.94041H10.141V18.3453H5.07056M27.8058 2.50551H33.0398V11.9104H33.5305L36.9653 4.15548C37.6196 2.67051 39.0916 2.50551 39.0916 2.50551H43.9985V18.3453H38.7645V8.94041H38.4374L35.0026 16.6953C34.3483 18.1803 32.7127 18.3453 32.7127 18.3453H27.8058M51.0317 13.5603V18.3453H46.1248V10.0954H62.154C61.4997 12.0754 59.2099 13.5603 56.5928 13.5603" fill="#444444"/>
<path d="M62.481 9.10527C63.1353 6.13532 61.1725 2.50537 56.9199 2.50537H45.7976C46.1247 5.97032 49.0689 9.10527 52.1766 9.10527" fill="url(#paint0_linear_880_3955)"/>
<defs>
<linearGradient id="paint0_linear_880_3955" x1="60.5183" y1="0.360403" x2="47.4332" y2="0.360403" gradientUnits="userSpaceOnUse">
<stop stop-color="#2D2D2D"/>
<stop offset="1" stop-color="#575757"/>
</linearGradient>
</defs>
</svg>
