<svg width="61" height="31" viewBox="0 0 61 31" fill="none" xmlns="http://www.w3.org/2000/svg">
<g clip-path="url(#clip0_880_3933)">
<path d="M52.8594 8.71193V16.1736H50.2221V10.9394H47.6827V16.1736H45.0454V8.71143H52.8594V8.71193Z" fill="#646464"/>
<path fill-rule="evenodd" clip-rule="evenodd" d="M39.6293 16.4401C41.9902 16.4401 43.7433 14.9777 43.7433 12.7607C43.7433 10.6149 42.4499 9.22166 40.2881 9.22166C39.2904 9.22166 38.4672 9.57645 37.8471 10.1886C37.9952 8.92332 39.0543 7.99958 40.2204 7.99958C40.4895 7.99958 42.5156 7.99526 42.5156 7.99526L43.6613 5.78027C43.6613 5.78027 41.1176 5.83877 39.9351 5.83877C37.2334 5.88633 35.4084 8.36735 35.4084 11.3807C35.4084 14.8913 37.1883 16.4401 39.6293 16.4401ZM39.6436 11.1836C40.5202 11.1836 41.1279 11.7655 41.1279 12.7604C41.1279 13.656 40.5879 14.3938 39.6436 14.3958C38.7403 14.3958 38.1326 13.7122 38.1326 12.7757C38.1326 11.7805 38.7403 11.1836 39.6436 11.1836Z" fill="#646464"/>
<path d="M33.2614 13.6756C33.2614 13.6756 32.6386 14.0383 31.7084 14.107C30.639 14.139 29.6861 13.4566 29.6861 12.2442C29.6861 11.0616 30.5269 10.3838 31.6814 10.3838C32.3894 10.3838 33.3259 10.8795 33.3259 10.8795C33.3259 10.8795 34.0111 9.60908 34.3661 8.97375C33.7161 8.47602 32.8503 8.20312 31.8433 8.20312C29.3019 8.20312 27.3335 9.87715 27.3335 12.2292C27.3335 14.6113 29.1836 16.2464 31.8433 16.1971C32.5867 16.1691 33.6124 15.9054 34.2375 15.4997L33.2614 13.6756Z" fill="#646464"/>
<path d="M0.832031 6.64258L4.49044 13.2489V17.2785L0.836311 23.8719L0.832031 6.64258Z" fill="#535353"/>
<path d="M14.8787 10.8451L18.3067 8.72243L25.3225 8.71582L14.8787 15.1794V10.8451Z" fill="#363636"/>
<path d="M14.8595 6.60427L14.8789 15.3508L11.2119 13.0745V0L14.8595 6.60427Z" fill="#6A6A6A"/>
<path d="M25.3227 8.71625L18.3067 8.72287L14.8595 6.60427L11.2119 0L25.3227 8.71625Z" fill="#515151"/>
<path d="M14.8789 23.9087V19.6652L11.2119 17.4321L11.2139 30.5196L14.8789 23.9087Z" fill="#525252"/>
<path d="M18.2984 21.8052L4.49019 13.2489L0.832031 6.64258L25.3078 21.7965L18.2984 21.8052Z" fill="#626262"/>
<path d="M11.2141 30.5197L14.8786 23.9089L18.2981 21.8055L25.3075 21.7969L11.2141 30.5197Z" fill="#3F3F3F"/>
<path d="M0.836426 23.8718L11.242 17.4321L7.74366 15.2637L4.49056 17.2785L0.836426 23.8718Z" fill="#393939"/>
<path d="M29.687 21.1953C29.6065 21.299 29.5005 21.3774 29.3733 21.4303C29.2429 21.4839 29.1033 21.5112 28.9625 21.5106C28.8224 21.5125 28.6832 21.4889 28.5514 21.4409C28.433 21.3975 28.3249 21.3298 28.2337 21.242C28.1436 21.1542 28.073 21.0481 28.0262 20.9307C27.9757 20.8022 27.9504 20.6649 27.952 20.5266C27.952 20.3893 27.9754 20.2621 28.024 20.1416C28.0705 20.0207 28.1383 19.9172 28.2231 19.8302C28.3079 19.7415 28.4096 19.6738 28.5239 19.6209C28.6405 19.5701 28.7676 19.5426 28.9074 19.5426C29.0579 19.5426 29.1976 19.5617 29.3248 19.5996C29.4519 19.6377 29.5599 19.7013 29.6488 19.7903L29.4942 20.0548C29.4194 19.9864 29.3314 19.9344 29.2356 19.9022C29.1446 19.8726 29.0496 19.8577 28.9539 19.858C28.8693 19.858 28.7888 19.8748 28.7105 19.9065C28.6333 19.9379 28.5628 19.984 28.5028 20.0421C28.4414 20.1019 28.3931 20.174 28.3608 20.2537C28.3248 20.3361 28.3079 20.4272 28.3079 20.5286C28.3079 20.6324 28.3268 20.7255 28.3628 20.8059C28.3991 20.8885 28.4477 20.9585 28.5091 21.0175C28.5705 21.077 28.6425 21.1212 28.7251 21.151C28.8079 21.1828 28.8948 21.1975 28.9879 21.1975C29.1022 21.1975 29.2062 21.1741 29.2951 21.1296C29.3831 21.0867 29.4622 21.0271 29.5282 20.9541L29.687 21.1953ZM30.1233 21.4661V19.5828H30.4581V20.9859L31.5469 19.5828H31.8818V21.4664H31.5469V20.0632L30.4581 21.4664L30.1233 21.4661ZM34.0997 21.1953C34.0173 21.2999 33.9092 21.3809 33.7863 21.4303C33.6557 21.4839 33.5161 21.5112 33.3751 21.5106C33.2352 21.5125 33.096 21.4889 32.9643 21.4409C32.8459 21.3975 32.7376 21.3298 32.6463 21.242C32.5563 21.1542 32.4856 21.0481 32.4389 20.9307C32.3883 20.8022 32.3631 20.6649 32.3646 20.5266C32.3646 20.3893 32.388 20.2621 32.4366 20.1416C32.4834 20.0207 32.5512 19.9172 32.6358 19.8302C32.7206 19.7415 32.8223 19.6738 32.9366 19.6209C33.0573 19.5672 33.1881 19.5405 33.32 19.5426C33.4706 19.5426 33.6103 19.5617 33.7374 19.5996C33.8645 19.6377 33.9725 19.7013 34.0617 19.7903L33.9068 20.0548C33.8322 19.9863 33.7442 19.9344 33.6485 19.9022C33.5575 19.8726 33.4625 19.8577 33.3668 19.858C33.1986 19.8585 33.0369 19.9244 32.9155 20.0421C32.8546 20.1024 32.8063 20.1743 32.7735 20.2537C32.7375 20.3361 32.7206 20.4272 32.7206 20.5286C32.7206 20.6324 32.7397 20.7255 32.7757 20.8059C32.8117 20.8885 32.8603 20.9585 32.9217 21.0175C32.9832 21.077 33.0554 21.1212 33.138 21.151C33.2206 21.1805 33.3074 21.1975 33.4006 21.1975C33.5151 21.1975 33.6168 21.1741 33.7077 21.1296C33.7958 21.0867 33.8749 21.0271 33.9408 20.9541L34.0997 21.1953ZM34.2714 19.5828H35.9893V19.9172H35.2988V21.4661H34.9639V19.9172H34.2734V19.5828H34.2714Z" fill="#646464"/>
<path fill-rule="evenodd" clip-rule="evenodd" d="M37.553 21.4473C37.6802 21.4071 37.7882 21.3455 37.8813 21.2611L37.7796 20.9986C37.7182 21.0538 37.6356 21.1004 37.5362 21.1385C37.4365 21.1767 37.3242 21.1955 37.2013 21.1955C37.0171 21.1955 36.8645 21.1469 36.7437 21.0475C36.6231 20.9478 36.5574 20.8084 36.5425 20.6304H37.9916C38.0064 20.5647 38.0127 20.4907 38.0127 20.404C38.0127 20.2748 37.9893 20.1586 37.9427 20.0528C37.8994 19.95 37.836 19.8571 37.7565 19.7796C37.6758 19.7028 37.5807 19.6432 37.4768 19.6041C37.368 19.5615 37.2523 19.5399 37.1356 19.5405C36.9788 19.5405 36.8411 19.568 36.7205 19.6189C36.6065 19.6673 36.5034 19.7386 36.4174 19.8284C36.3339 19.9178 36.2698 20.0237 36.2291 20.1395C36.1843 20.2628 36.1621 20.3932 36.1634 20.5246C36.1634 20.6728 36.1888 20.8081 36.2354 20.9289C36.2807 21.046 36.35 21.152 36.4388 21.24C36.5257 21.3265 36.6314 21.3923 36.7565 21.4389C36.8905 21.4869 37.0318 21.5105 37.1739 21.5086C37.3026 21.5078 37.4305 21.4869 37.553 21.4473ZM36.7057 19.9976C36.8094 19.9025 36.9471 19.8559 37.1208 19.8559C37.2839 19.8559 37.4153 19.9004 37.5107 19.9894C37.6062 20.0782 37.6568 20.201 37.6653 20.3575H36.5214C36.5376 20.219 36.6031 20.0909 36.7057 19.9976Z" fill="#646464"/>
<path d="M38.4683 19.5825H38.7734L39.4979 20.5159L40.1842 19.5825H40.4807V21.4661H40.1462V20.0927L39.4936 20.9666H39.4808L38.8031 20.0925V21.4659H38.4683V19.5825Z" fill="#646464"/>
<path fill-rule="evenodd" clip-rule="evenodd" d="M41.3916 19.5889C41.29 19.6157 41.1929 19.6577 41.1036 19.7135L41.1925 19.9805C41.2687 19.9424 41.345 19.9106 41.4213 19.8831C41.4976 19.8554 41.595 19.8427 41.7116 19.8427C41.8047 19.8427 41.879 19.8577 41.9361 19.8872C41.9933 19.9147 42.0356 19.9571 42.0653 20.008C42.095 20.0589 42.1141 20.1222 42.1247 20.1962C42.1352 20.2702 42.1395 20.3506 42.1395 20.4376C42.071 20.3893 41.9929 20.3568 41.9107 20.3422C41.8312 20.3262 41.7503 20.3177 41.6693 20.3168C41.5696 20.3168 41.4764 20.3318 41.3873 20.3569C41.2984 20.3824 41.2222 20.4205 41.1607 20.4714C41.098 20.5222 41.0474 20.5865 41.0124 20.6596C40.9751 20.7397 40.9563 20.8272 40.9573 20.9157C40.9573 21.0998 41.0104 21.2438 41.1162 21.3455C41.2222 21.447 41.3619 21.4976 41.5356 21.4976C41.6924 21.4976 41.8175 21.4702 41.9127 21.4152C42.0081 21.36 42.0844 21.2967 42.1395 21.2247V21.4681H42.453V20.3127C42.453 20.067 42.4001 19.8768 42.2921 19.7432C42.1861 19.61 41.9975 19.5423 41.7307 19.5423C41.6119 19.5423 41.4996 19.5591 41.3916 19.5889ZM41.9512 21.1149C41.8749 21.1698 41.7752 21.195 41.6524 21.195C41.5444 21.195 41.4596 21.1675 41.4004 21.1146C41.341 21.0597 41.3113 20.9877 41.3113 20.8987C41.3113 20.846 41.3218 20.8015 41.3453 20.7613C41.3687 20.7211 41.4004 20.6894 41.4364 20.6639C41.4758 20.6373 41.5195 20.6179 41.5655 20.6067C41.6144 20.594 41.663 20.5876 41.7138 20.5876C41.8792 20.5876 42.021 20.6278 42.1375 20.7125V20.9516C42.0826 21.0138 42.02 21.0688 41.9512 21.1149ZM45.4085 18.92C45.4762 18.8884 45.5396 18.8355 45.5991 18.7572L45.4168 18.4927C45.3702 18.5563 45.3174 18.6005 45.2579 18.6239C45.195 18.6488 45.1297 18.6672 45.0631 18.6788L44.9996 18.6903C44.9445 18.7 44.8854 18.7106 44.8217 18.7213C44.7195 18.7404 44.62 18.7717 44.5251 18.8144C44.3746 18.88 44.254 18.9688 44.1628 19.0809C44.0717 19.1931 43.9997 19.32 43.9509 19.4599C43.9014 19.6016 43.868 19.7485 43.8514 19.8979C43.8343 20.0505 43.826 20.1962 43.826 20.3358C43.826 20.5159 43.8492 20.6787 43.8957 20.8247C43.9426 20.9709 44.008 21.0935 44.0949 21.1929C44.1817 21.2947 44.2857 21.371 44.4085 21.4259C44.5314 21.4808 44.6691 21.5083 44.8237 21.5083C44.9657 21.5083 45.0971 21.4808 45.2156 21.43C45.33 21.3811 45.4336 21.31 45.5208 21.2207C45.6054 21.1337 45.6733 21.0299 45.7199 20.9137C45.7685 20.7972 45.7919 20.6723 45.7919 20.5411C45.7919 20.3994 45.7708 20.2705 45.7305 20.156C45.6934 20.0469 45.6342 19.9468 45.5568 19.862C45.4792 19.7786 45.3844 19.7135 45.2791 19.6713C45.1631 19.6251 45.0394 19.6021 44.9148 19.6036C44.8342 19.6036 44.756 19.6143 44.6797 19.6354C44.6055 19.6565 44.5342 19.6871 44.4677 19.7264C44.4031 19.7638 44.344 19.81 44.292 19.8638C44.2411 19.9169 44.1988 19.9762 44.1691 20.0439H44.1606C44.1671 19.9571 44.1777 19.8684 44.1966 19.7773C44.2157 19.6863 44.2431 19.5993 44.2794 19.5169C44.3154 19.4345 44.362 19.3602 44.4191 19.2926C44.4804 19.2243 44.5555 19.1701 44.6394 19.1338C44.7316 19.0895 44.8292 19.0575 44.9297 19.0387L44.9961 19.0265C45.0623 19.0143 45.1255 19.0026 45.1859 18.9899C45.2665 18.9731 45.3405 18.9515 45.4085 18.92ZM44.2306 20.7295C44.1978 20.6227 44.1821 20.5113 44.184 20.3994C44.1982 20.3352 44.224 20.2743 44.2603 20.2196C44.2963 20.1624 44.3428 20.1118 44.398 20.067C44.5224 19.9685 44.6762 19.9156 44.8342 19.9169C45.0314 19.9169 45.1796 19.9782 45.2834 20.099C45.3873 20.2216 45.4382 20.374 45.4382 20.5581C45.4382 20.6492 45.4211 20.7318 45.3916 20.8079C45.363 20.8829 45.3197 20.9513 45.2644 21.0091C45.2091 21.0669 45.1429 21.1129 45.0696 21.1444C44.9934 21.1782 44.9105 21.1952 44.8174 21.1952C44.7242 21.1952 44.6394 21.1761 44.5611 21.138C44.4833 21.1006 44.4145 21.0464 44.3597 20.9793C44.3023 20.9045 44.2586 20.8199 44.2306 20.7295ZM48.3595 19.5825H48.0247V21.4661H48.3595V19.5825ZM46.2748 19.5825H46.6096V20.1476H46.919C47.065 20.1476 47.1836 20.1667 47.279 20.2026C47.3744 20.2387 47.4507 20.2873 47.5078 20.3465C47.565 20.4058 47.6052 20.4757 47.6287 20.5538C47.6518 20.6321 47.6647 20.7125 47.6647 20.7972C47.6647 20.8819 47.6518 20.9625 47.6244 21.0429C47.599 21.1232 47.5544 21.1929 47.495 21.2565C47.4358 21.3201 47.3553 21.371 47.2536 21.4091C47.1518 21.447 47.029 21.4681 46.8807 21.4681H46.2727V19.5825H46.2748ZM46.6096 20.4627V21.1527H46.8533C47.0207 21.1527 47.1393 21.1232 47.207 21.0637C47.275 21.0045 47.3087 20.92 47.3087 20.8079C47.3087 20.6934 47.2727 20.6069 47.205 20.5474C47.135 20.4882 47.0184 20.4584 46.8576 20.4584H46.6096V20.4627Z" fill="#646464"/>
<path d="M50.5735 21.1953C50.4929 21.299 50.387 21.3774 50.2598 21.4303C50.1294 21.4839 49.9898 21.5112 49.849 21.5106C49.7089 21.5125 49.5696 21.4889 49.4379 21.4409C49.3195 21.3976 49.2113 21.3299 49.1202 21.2421C49.0301 21.1541 48.9594 21.0481 48.9125 20.9307C48.8621 20.8022 48.8369 20.6649 48.8384 20.5266C48.8384 20.3893 48.8616 20.2621 48.9104 20.1416C48.957 20.0207 49.0247 19.9172 49.1096 19.8302C49.1944 19.7415 49.2959 19.6738 49.4104 19.6209C49.5311 19.5672 49.6619 19.5405 49.7938 19.5426C49.9441 19.5426 50.0841 19.5617 50.2112 19.5996C50.3384 19.6377 50.4464 19.7013 50.5352 19.7903L50.3807 20.0548C50.3059 19.9864 50.2178 19.9344 50.1221 19.9022C50.0311 19.8726 49.936 19.8577 49.8404 19.858C49.7558 19.858 49.6753 19.8748 49.5967 19.9065C49.5196 19.9379 49.4492 19.984 49.3893 20.0421C49.3284 20.1023 49.2801 20.1743 49.2473 20.2537C49.2113 20.3361 49.1944 20.4272 49.1944 20.5286C49.1944 20.6324 49.2133 20.7255 49.2493 20.8059C49.2853 20.8885 49.3341 20.9585 49.3956 21.0175C49.457 21.077 49.529 21.1212 49.6116 21.151C49.6944 21.1805 49.7812 21.1975 49.8744 21.1975C49.9887 21.1975 50.0904 21.1741 50.1815 21.1296C50.2696 21.0867 50.3487 21.0271 50.4146 20.9541L50.5735 21.1953ZM50.7449 19.5828H52.4631V19.9172H51.7723V21.4661H51.4378V19.9172H50.7472V19.5828H50.7449Z" fill="#646464"/>
<path fill-rule="evenodd" clip-rule="evenodd" d="M53.162 19.5826H52.8271V22.304H53.162V21.3793C53.2297 21.4238 53.3103 21.4556 53.4034 21.4767C53.4965 21.4978 53.594 21.5082 53.6937 21.5082C53.8419 21.5082 53.9754 21.4807 54.0962 21.4301C54.2121 21.38 54.3172 21.3075 54.4054 21.2165C54.4922 21.1252 54.5579 21.0194 54.6045 20.8945C54.6511 20.7699 54.6745 20.6364 54.6745 20.4947C54.6745 20.3548 54.6533 20.2259 54.6131 20.1094C54.5751 19.9988 54.5161 19.8967 54.4393 19.809C54.364 19.7235 54.2706 19.6562 54.166 19.6122C54.0516 19.5625 53.9281 19.538 53.8037 19.5402C53.6725 19.5402 53.5497 19.5656 53.4331 19.6165C53.3166 19.6673 53.2254 19.7284 53.162 19.8047V19.5826ZM53.3951 19.9318C53.4905 19.881 53.5942 19.8555 53.7065 19.8555C53.8039 19.8555 53.8908 19.8703 53.9693 19.9021C54.0456 19.9339 54.1091 19.9784 54.1622 20.0377C54.215 20.0969 54.2553 20.1648 54.2807 20.2449C54.3082 20.3253 54.321 20.4123 54.321 20.5074C54.321 20.6091 54.3039 20.6999 54.2745 20.7846C54.2467 20.8649 54.2026 20.9385 54.1451 21.0006C54.0872 21.0619 54.0172 21.1102 53.9396 21.1422C53.8531 21.1788 53.76 21.1968 53.6662 21.1951C53.5753 21.1951 53.4905 21.1847 53.4099 21.1636C53.3217 21.1393 53.2381 21.1007 53.1622 21.0491V20.1157C53.2214 20.044 53.2999 19.9827 53.3951 19.9318ZM57.2421 19.5824H56.9072V21.466H57.2421V19.5824ZM55.1553 19.5824H55.4901V20.1475H55.7993C55.9456 20.1475 56.0641 20.1666 56.1595 20.2025C56.255 20.2386 56.3312 20.2872 56.3884 20.3464C56.4455 20.4057 56.4858 20.4756 56.509 20.5537C56.5324 20.632 56.545 20.7124 56.545 20.7971C56.545 20.8818 56.5324 20.9624 56.5049 21.0428C56.4795 21.1231 56.435 21.1928 56.3755 21.2564C56.3164 21.32 56.2358 21.3709 56.1341 21.409C56.0324 21.4469 55.9096 21.468 55.7613 21.468H55.1533V19.5824H55.1553ZM55.4924 20.4626V21.1526H55.7361C55.9033 21.1526 56.0221 21.1231 56.0898 21.0636C56.1575 21.0044 56.1915 20.9199 56.1915 20.8078C56.1915 20.6933 56.1555 20.6069 56.0878 20.5473C56.0178 20.4881 55.9013 20.4583 55.7404 20.4583H55.4924V20.4626Z" fill="#646464"/>
<path d="M58.8479 20.4905L59.5639 21.4661H59.153L58.5999 20.7041L58.0385 21.4661H57.6488L58.3605 20.5073L57.6911 19.5825H58.1022L58.6128 20.2936L59.1316 19.5825H59.5216L58.8479 20.4905ZM29.4394 23.794H28.412V25.3643H28.0771V23.4809H29.7739V25.3643H29.4394V23.794ZM31.6741 23.8151H31.0133L30.9919 24.1325C30.9687 24.4014 30.937 24.6173 30.8925 24.7821C30.8479 24.9474 30.7928 25.0743 30.7293 25.1631C30.6659 25.2521 30.5916 25.3134 30.5068 25.3432C30.4193 25.3752 30.3267 25.391 30.2336 25.3897L30.2082 25.0637C30.2442 25.0657 30.2865 25.0573 30.3331 25.0362C30.3799 25.0151 30.4265 24.9685 30.4708 24.8988C30.5153 24.8266 30.5556 24.7251 30.5916 24.5939C30.6276 24.4606 30.651 24.2872 30.6636 24.069L30.6976 23.4827H32.009V25.3663H31.6741V23.8151Z" fill="#646464"/>
<path fill-rule="evenodd" clip-rule="evenodd" d="M32.9114 23.485C32.8031 23.5145 32.7057 23.5567 32.6231 23.6096L32.7122 23.8764C32.7885 23.8383 32.8648 23.8065 32.9408 23.779C33.0171 23.7516 33.1148 23.7388 33.2311 23.7388C33.3245 23.7388 33.3985 23.7536 33.4556 23.7831C33.513 23.8108 33.5553 23.853 33.585 23.9039C33.6145 23.9548 33.6336 24.0184 33.6442 24.0921C33.6548 24.1664 33.6591 24.2467 33.6591 24.3335C33.5905 24.2853 33.5124 24.2529 33.4302 24.2384C33.3507 24.2224 33.2699 24.2139 33.1888 24.2129C33.0894 24.2129 32.996 24.2277 32.9071 24.2531C32.818 24.2785 32.7417 24.3167 32.6803 24.3676C32.6176 24.4183 32.5669 24.4826 32.532 24.5558C32.4947 24.6358 32.476 24.7234 32.4771 24.8119C32.4771 24.9958 32.53 25.14 32.636 25.2414C32.7417 25.3429 32.8817 25.3938 33.0554 25.3938C33.2122 25.3938 33.3371 25.3663 33.4325 25.3111C33.5276 25.2562 33.6039 25.1926 33.6591 25.1206V25.364H33.9727V24.2086C33.9727 23.9632 33.9196 23.7727 33.8116 23.6394C33.7056 23.5059 33.5171 23.4385 33.2502 23.4385C33.1357 23.4386 33.0218 23.4544 32.9114 23.485ZM33.4728 25.0105C33.3967 25.0657 33.297 25.0911 33.1742 25.0911C33.0639 25.0911 32.9813 25.0637 32.9222 25.0105C32.8628 24.9556 32.8331 24.8836 32.8331 24.7948C32.8331 24.7419 32.8436 24.6974 32.8671 24.6572C32.8902 24.6171 32.9222 24.5853 32.9582 24.5598C32.9942 24.5344 33.0385 24.5153 33.0873 24.5026C33.1358 24.49 33.1856 24.4836 33.2356 24.4838C33.4008 24.4838 33.5427 24.524 33.6593 24.6084V24.8475C33.6043 24.9097 33.5416 24.9645 33.4728 25.0105Z" fill="#646464"/>
<path d="M34.301 23.4814H36.0192V23.8156H35.3284V25.3648H34.9938V23.8159H34.3033V23.4814H34.301Z" fill="#646464"/>
<path fill-rule="evenodd" clip-rule="evenodd" d="M37.5826 25.3452C37.7097 25.3051 37.8177 25.2435 37.9109 25.1591L37.8092 24.8966C37.7477 24.9518 37.6652 24.9983 37.5655 25.0365C37.466 25.0746 37.3537 25.0934 37.2309 25.0934C37.0466 25.0934 36.894 25.0449 36.7732 24.9454C36.6524 24.846 36.5869 24.7064 36.5721 24.5283H38.0211C38.0357 24.463 38.0423 24.3887 38.0423 24.302C38.0423 24.173 38.0189 24.0565 37.9723 23.9507C37.9289 23.848 37.8655 23.7552 37.7857 23.6778C37.7052 23.6009 37.6102 23.5411 37.5063 23.5021C37.3975 23.4595 37.2818 23.4379 37.1652 23.4385C37.0083 23.4385 36.8706 23.466 36.75 23.5168C36.636 23.5652 36.5328 23.6365 36.4469 23.7264C36.3635 23.8158 36.2993 23.9217 36.2584 24.0375C36.2137 24.1608 36.1915 24.2912 36.1927 24.4225C36.1927 24.5708 36.2181 24.7061 36.2647 24.8269C36.3115 24.9475 36.3812 25.0512 36.4681 25.138C36.5549 25.2247 36.6609 25.2903 36.786 25.3368C36.9199 25.3849 37.0611 25.4086 37.2032 25.4068C37.3283 25.4068 37.4554 25.3854 37.5826 25.3452ZM36.7332 23.8935C36.8369 23.7984 36.9746 23.7518 37.1483 23.7518C37.3137 23.7518 37.4429 23.7984 37.5383 23.8851C37.6334 23.9741 37.6843 24.0967 37.6928 24.2534H36.5489C36.5651 24.1148 36.6305 23.9869 36.7332 23.8935ZM38.2054 23.481H38.6291L39.2751 24.3889L38.5845 25.3643H38.1737L38.898 24.3887L38.2054 23.481ZM39.3577 23.481H39.6925V25.3643H39.3577V23.481ZM40.8893 25.3643L40.1522 24.3887L40.8407 23.4807H40.4253L39.7751 24.3887L40.4742 25.3643H40.8893ZM42.4189 25.3452C42.5461 25.3051 42.6541 25.2435 42.7472 25.1591L42.6455 24.8966C42.5841 24.9518 42.5015 24.9983 42.4021 25.0365C42.3024 25.0746 42.1901 25.0934 42.0672 25.0934C41.883 25.0934 41.7304 25.0449 41.6096 24.9454C41.489 24.846 41.4233 24.7064 41.4084 24.5283H42.8575C42.8723 24.463 42.8786 24.3887 42.8786 24.302C42.8786 24.173 42.8555 24.0565 42.8086 23.9507C42.7653 23.8481 42.7019 23.7553 42.6223 23.6778C42.5417 23.6009 42.4466 23.5411 42.3426 23.5021C42.2339 23.4595 42.1182 23.4379 42.0015 23.4385C41.8449 23.4385 41.7072 23.466 41.5864 23.5168C41.4724 23.5652 41.3694 23.6365 41.2835 23.7264C41.1999 23.8157 41.1357 23.9216 41.095 24.0375C41.0502 24.1607 41.028 24.2912 41.0293 24.4225C41.0293 24.5708 41.0547 24.7061 41.1013 24.8269C41.1478 24.9475 41.2178 25.0512 41.3047 25.138C41.3915 25.2247 41.4973 25.2903 41.6224 25.3368C41.7563 25.3849 41.8977 25.4086 42.0398 25.4068C42.1685 25.4058 42.2964 25.3851 42.4189 25.3452ZM41.5695 23.8935C41.6735 23.7984 41.8112 23.7518 41.9849 23.7518C42.148 23.7518 42.2792 23.7984 42.3746 23.8851C42.47 23.9741 42.5209 24.0967 42.5292 24.2534H41.3852C41.4014 24.1148 41.4669 23.9869 41.5695 23.8935ZM44.2368 22.8482C44.0397 22.8482 43.9317 22.7381 43.9148 22.5181H43.5991C43.5991 22.6025 43.614 22.6788 43.6414 22.7508C43.6691 22.8228 43.7094 22.8841 43.7623 22.9349C43.8151 22.9858 43.8831 23.026 43.9614 23.0575C44.0397 23.0893 44.1308 23.1041 44.2345 23.1041C44.3299 23.1041 44.4148 23.0893 44.4911 23.0575C44.5673 23.028 44.6308 22.9858 44.6859 22.9349C44.7388 22.8841 44.7813 22.8228 44.8108 22.7508C44.8405 22.6788 44.8554 22.6025 44.8554 22.5181H44.5419C44.5271 22.7381 44.4231 22.8482 44.2368 22.8482ZM43.332 23.4807V25.3643H43.6668L44.7557 23.9612V25.3643H45.0905V23.4807H44.7557L43.6668 24.8839V23.4807H43.332Z" fill="#646464"/>
</g>
<defs>
<clipPath id="clip0_880_3933">
<rect width="60.168" height="30.52" fill="white" transform="translate(0.832031)"/>
</clipPath>
</defs>
</svg>
