<svg width="54" height="19" viewBox="0 0 54 19" fill="none" xmlns="http://www.w3.org/2000/svg">
<path d="M23.3283 17.9927H18.9675L21.6951 0.583008H26.0556L23.3283 17.9927Z" fill="#5C5C5C"/>
<path d="M39.1361 1.00878C38.2759 0.656518 36.9117 0.267578 35.2248 0.267578C30.9184 0.267578 27.8859 2.63814 27.8673 6.02733C27.8315 8.52787 30.0385 9.91672 31.6891 10.7505C33.3762 11.6025 33.9497 12.1585 33.9497 12.918C33.9326 14.0843 32.5864 14.6219 31.3309 14.6219C29.5899 14.6219 28.657 14.3447 27.2394 13.6958L26.6652 13.4177L26.0549 17.3258C27.0777 17.8068 28.962 18.2336 30.9184 18.2523C35.494 18.2523 38.4729 15.9185 38.5082 12.3067C38.5256 10.3249 37.3602 8.80628 34.8478 7.56536C33.3226 6.76878 32.3885 6.23165 32.3885 5.4166C32.4064 4.67564 33.1785 3.91672 34.9002 3.91672C36.3179 3.87955 37.3595 4.23131 38.1486 4.58333L38.543 4.7682L39.1361 1.00878Z" fill="#5C5C5C"/>
<path d="M44.9316 11.8251C45.2908 10.8249 46.6727 6.95398 46.6727 6.95398C46.6545 6.99115 47.0311 5.93535 47.2464 5.2872L47.5512 6.78733C47.5512 6.78733 48.377 10.9546 48.5563 11.8251C47.8747 11.8251 45.793 11.8251 44.9316 11.8251ZM50.3145 0.583008H46.9414C45.9012 0.583008 45.111 0.897606 44.6622 2.0275L38.1848 17.9925H42.7604C42.7604 17.9925 43.5137 15.8437 43.6757 15.3809C44.1776 15.3809 48.6288 15.3809 49.2745 15.3809C49.3997 15.9921 49.7949 17.9925 49.7949 17.9925H53.8325L50.3145 0.583008Z" fill="#5C5C5C"/>
<path d="M15.3242 0.583008L11.0536 12.4548L10.5869 10.047C9.79737 7.26883 7.32117 4.25036 4.55786 2.7495L8.46961 17.9743H13.081L19.9354 0.583008H15.3242Z" fill="#5C5C5C"/>
<path d="M7.08783 0.583008H0.071777L0 0.934776C5.47296 2.37951 9.0976 5.862 10.5868 10.0478L9.06159 2.04645C8.81049 0.93453 8.03882 0.619686 7.08783 0.583008Z" fill="#929292"/>
</svg>
