<svg width="52" height="50" viewBox="0 0 52 50" fill="none" xmlns="http://www.w3.org/2000/svg">
<path d="M23.5098 4C18.9608 4 14.514 5.34893 10.7316 7.8762C6.94932 10.4035 4.00135 13.9956 2.26053 18.1983C0.51972 22.401 0.0642431 27.0255 0.951703 31.4871C1.83916 35.9486 4.0297 40.0468 7.24631 43.2635C10.4629 46.4801 14.5611 48.6706 19.0227 49.5581C23.4843 50.4455 28.1088 49.99 32.3115 48.2492C36.5142 46.5084 40.1063 43.5604 42.6336 39.7781C45.1608 35.9958 46.5098 31.549 46.5098 27L36.9733 27C36.9733 29.6628 36.1837 32.2659 34.7043 34.4799C33.2249 36.694 31.1222 38.4197 28.662 39.4387C26.2019 40.4577 23.4948 40.7243 20.8832 40.2048C18.2715 39.6853 15.8725 38.4031 13.9896 36.5202C12.1067 34.6372 10.8244 32.2383 10.3049 29.6266C9.78543 27.0149 10.0521 24.3079 11.0711 21.8477C12.0901 19.3876 13.8158 17.2849 16.0298 15.8055C18.2439 14.3261 20.8469 13.5365 23.5098 13.5365L23.5098 4Z" fill="white"/>
<path d="M27.0098 28V0L51.5098 14L27.0098 28Z" fill="url(#paint0_linear_2927_5075)"/>
<defs>
<linearGradient id="paint0_linear_2927_5075" x1="23.5098" y1="1.03433e-07" x2="43.3923" y2="28" gradientUnits="userSpaceOnUse">
<stop stop-color="#FFB34C"/>
<stop offset="1" stop-color="#FFA760"/>
</linearGradient>
</defs>
</svg>
